PathFileType	4	(X/Y/Z)	C:/Users/opensim2020/Desktop/walking_exp_matlab/subject03_walking15_straight_03.trc																																																																																																																																											
DataRate	CameraRate	NumFrames	NumMarkers	Units	OrigDataRate	OrigDataStartFrame	OrigNumFrames																																																																																																																																							
100	100	4	47	mm	100	1632	220																																																																																																																																							
Frame#	Time	LFHD			RFHD			LBHD			RBHD			C7			T10			CLAV			STRN			RBAK			LSHO			LUPA			LELB			LFRM			LWRA			LWRB			LFIN			RSHO			RUPA			RELB			RFRM			RWRA			RWRB			RFIN			LASI			RASI			LPSI			RPSI			LTHI			LKNE			LTIB			LANK			LHEE			LTOE			RTHI			RKNE			RTIB			RANK			RHEE			RTOE			*39			*40			*41			*42			*43			*44			*45			*46		
		X1	Y1	Z1	X2	Y2	Z2	X3	Y3	Z3	X4	Y4	Z4	X5	Y5	Z5	X6	Y6	Z6	X7	Y7	Z7	X8	Y8	Z8	X9	Y9	Z9	X10	Y10	Z10	X11	Y11	Z11	X12	Y12	Z12	X13	Y13	Z13	X14	Y14	Z14	X15	Y15	Z15	X16	Y16	Z16	X17	Y17	Z17	X18	Y18	Z18	X19	Y19	Z19	X20	Y20	Z20	X21	Y21	Z21	X22	Y22	Z22	X23	Y23	Z23	X24	Y24	Z24	X25	Y25	Z25	X26	Y26	Z26	X27	Y27	Z27	X28	Y28	Z28	X29	Y29	Z29	X30	Y30	Z30	X31	Y31	Z31	X32	Y32	Z32	X33	Y33	Z33	X34	Y34	Z34	X35	Y35	Z35	X36	Y36	Z36	X37	Y37	Z37	X38	Y38	Z38	X39	Y39	Z39	X40	Y40	Z40	X41	Y41	Z41	X42	Y42	Z42	X43	Y43	Z43	X44	Y44	Z44	X45	Y45	Z45	X46	Y46	Z46	X47	Y47	Z47
																																																																																																																																														
56	0.55	-743.271	1610.22144	1343.68567	-741.43439	1614.60925	1476.67786	-863.62012	1548.78149	1350.90063	-856.80969	1553.36829	1481.53345	-877.73639	1402.18982	1401.22168	-941.39435	1099.84595	1413.15332	-757.92719	1321.19336	1407.04871	-729.45587	1150.94202	1401.40625	-942.09137	1234.771	1496.21021	-794.31866	1359.24438	1250.81311	-778.01996	1167.80066	1180.85852	-745.29205	1048.24707	1175.14624	-674.97369	942.72119	1197.16699	-616.40942	849.37714	1250.11121	-629.06885	838.3924	1197.22913	-580.14935	775.37573	1222.15784	-810.50427	1350.49756	1565.13916	-853.81348	1138.67773	1649.43567	-860.90112	1027.07141	1672.00415	-870.85211	890.60297	1684.45081	-856.76282	788.72052	1658.49121	-892.2486	793.35394	1700.27844	-885.17322	717.8125	1695.0083	-812.83093	920.22302	1288.54626	-785.03693	922.25397	1522.23669	-966.11377	956.17444	1357.82898	-948.45398	959.44592	1504.34705	-929.13226	630.74872	1270.55334	-965.87842	460.39944	1318.40027	-1063.18237	286.23126	1330.30701	-1119.38696	82.56496	1381.35913	-1160.72681	54.3121	1423.34814	-970.90192	34.38707	1386.51416	-762.14227	642.42383	1585.96509	-672.13965	488.57159	1548.29163	-673.92755	298.18491	1553.38208	-655.2948	81.72722	1508.92834	-694.48456	45.20403	1455.58997	-515.14142	59.26662	1487.48474	-832.00787	1658.90808	1396.75867	NaN	NaN	NaN	NaN	NaN	NaN	NaN	NaN	NaN	NaN	NaN	NaN	NaN	NaN	NaN	NaN	NaN	NaN	NaN	NaN	NaN
57	0.56	-731.85834	1608.77307	1343.42261	-730.15094	1613.37109	1476.40442	-852.24481	1547.37744	1350.60522	-845.52704	1552.14526	1481.27539	-866.40521	1400.63818	1401.02234	-929.44678	1098.18884	1413.03735	-746.3219	1319.99011	1407.15247	-717.53583	1149.80383	1401.49109	-930.42603	1233.07178	1495.81213	-782.73181	1357.97144	1250.84851	-765.96558	1166.89258	1180.45459	-732.62195	1047.94812	1174.28735	-658.55713	945.04095	1196.96619	-596.17633	855.01611	1250.80933	-609.1405	842.38879	1198.3894	-557.77209	781.69995	1223.99536	-799.41217	1349.20007	1565.0658	-842.92035	1137.30249	1649.08386	-849.8714	1025.64856	1671.73499	-860.60895	889.26001	1684.48767	-846.90161	787.13409	1658.97314	-882.64172	792.20453	1700.5293	-875.90704	716.63409	1695.66516	-800.37567	918.68585	1288.54626	-772.48035	921.06104	1522.35425	-953.87646	954.07593	1358.0166	-936.10022	957.48523	1504.47241	-918.98108	629.95837	1270.33594	-958.19623	459.84695	1317.95068	-1058.5249	287.40884	1329.66589	-1118.58154	84.66887	1380.51233	-1160.37585	57.40399	1422.30664	-970.65863	34.1725	1386.41931	-751.79645	639.70026	1586.10034	-660.28082	486.98962	1546.41492	-655.44836	297.48254	1551.65808	-627.76416	81.9285	1507.62805	-665.677	44.41603	1453.57031	-486.48749	62.88593	1486.76526	-820.59644	1657.63049	1396.21997	NaN	NaN	NaN	NaN	NaN	NaN	NaN	NaN	NaN	NaN	NaN	NaN	NaN	NaN	NaN	NaN	NaN	NaN	NaN	NaN	NaN
58	0.57	-720.43365	1607.5271	1343.13416	-718.82581	1612.36511	1476.16833	-840.85706	1546.15723	1350.42664	-834.13232	1551.12024	1481.07715	-855.12775	1399.28577	1400.97656	-917.18304	1096.61108	1412.94934	-734.76685	1318.79749	1407.12683	-705.23663	1148.88745	1401.60046	-918.64636	1231.42126	1495.50403	-771.06238	1356.85876	1250.93835	-754.08435	1166.0376	1180.16016	-719.74231	1047.59961	1173.85376	-642.85638	947.6106	1196.67444	-576.81934	860.97931	1251.24426	-590.01758	846.76361	1199.31567	-536.24249	788.48108	1225.46851	-788.0885	1348.08496	1565.11157	-831.51563	1136.02991	1648.86658	-838.53125	1024.349	1671.58777	-849.89099	888.05023	1684.63196	-836.65686	785.72528	1659.4447	-872.54376	791.17065	1700.82581	-866.40247	715.51849	1696.23193	-787.78076	917.24573	1288.50562	-759.802	920.08173	1522.47705	-941.34723	952.08063	1358.27917	-924.48486	955.92743	1504.40002	-908.22656	629.17169	1270.09119	-949.93768	459.54181	1317.31665	-1053.32825	288.69492	1328.86279	-1116.80615	86.33426	1379.74146	-1159.75757	60.74765	1421.03589	-970.45093	34.05368	1386.33484	-741.34772	637.24127	1586.44299	-648.26715	485.60709	1544.53809	-638.27368	296.96152	1549.71777	-603.43927	82.20989	1505.16284	-639.98468	44.03384	1450.65454	-461.37042	66.26649	1485.95313	-810.28815	1657.32458	1397.02527	NaN	NaN	NaN	NaN	NaN	NaN	NaN	NaN	NaN	NaN	NaN	NaN	NaN	NaN	NaN	NaN	NaN	NaN	NaN	NaN	NaN
59	0.58	-708.92206	1606.51208	1342.83215	-707.25842	1611.60413	1475.95996	-829.28424	1545.10718	1350.36438	-822.63208	1550.36438	1481.03186	-843.58008	1397.87634	1400.995	-904.56836	1095.13599	1412.87	-722.74207	1318.13354	1407.47192	-692.74554	1148.18396	1401.71143	-906.50531	1229.88904	1495.34058	-759.25714	1356.08582	1251.16064	-742.17236	1165.44177	1179.98755	-708.34692	1047.42334	1173.01135	-627.7981	950.35645	1196.36353	-558.17908	867.15875	1251.56506	-571.67285	851.34229	1200.06689	-515.49249	795.61255	1226.59644	-776.88342	1347.17993	1565.17505	-819.8844	1134.90369	1648.62964	-826.97552	1023.20648	1671.27368	-838.73871	886.94604	1684.76501	-825.7851	784.45673	1660.05334	-861.81738	790.15826	1701.2511	-856.16345	714.52661	1696.89246	-774.6192	915.9552	1288.69434	-746.75195	919.37811	1522.58447	-928.50623	950.25226	1358.62244	-911.53992	954.57092	1504.6394	-897.03558	628.70752	1269.58496	-940.79553	459.19461	1316.49866	-1047.46899	290.20419	1327.8407	-1115.29126	89.22051	1378.54419	-1158.7417	64.50769	1419.61926	-970.25073	33.85045	1386.25195	-730.01025	635.30475	1586.66687	-636.0575	484.5311	1542.8031	-622.58258	296.30234	1547.64563	-582.7663	82.39704	1502.48621	-617.95258	43.69659	1447.46021	-440.05573	69.02	1484.82349	-797.7453	1655.67358	1395.66174	NaN	NaN	NaN	NaN	NaN	NaN	NaN	NaN	NaN	NaN	NaN	NaN	NaN	NaN	NaN	NaN	NaN	NaN	NaN	NaN	NaN
